<svg version="1.1"
      xmlns="http://www.w3.org/2000/svg"
      xmlns:xlink="http://www.w3.org/1999/xlink"  id="snapshot-30794" width="250" height="250" viewBox="0 0 250 250"><desc>This image was made on Patterninja.com</desc><defs>
<!-- image 73237 -->
<g id="transformed-73237" data-image="73237" transform="translate(38.9912287450431, 78.99122874504313) rotate(1, 57.0087712549569, 57.00877125495687)"><g><svg version="1.1" width="114.0175425099138px" height="114.01754250991374px" viewBox="0 0 114.0175425099138 114.01754250991374"><g id="original-73237"><svg xmlns="http://www.w3.org/2000/svg" viewBox="0 0 500 500" xmlns:xlink="http://www.w3.org/1999/xlink" version="1.1" preserveAspectRatio="xMidYMid meet">
  <path d="M298 3c.388 29.385.689 58.769.868 88.156l.066 10.416.013 2.094c.074 11.181.208 22.361.365 33.541.159 11.479.252 22.957.288 34.436.022 6.447.074 12.89.197 19.334.116 6.07.151 12.136.126 18.207.004 2.224.038 4.45.103 6.673.457 16.364.457 16.364-3.683 20.998-4.052 3.223-8.482 5.34-13.261 7.268-3.02 1.272-5.716 2.907-8.516 4.607-2 1.154-4.002 2.306-6.003 3.458l-3.318 1.911L255 260a23138.48 23138.48 0 0 0-9.876 5.69c-2.155 1.242-4.31 2.481-6.466 3.719a878.278 878.278 0 0 0-16.451 9.68l-3.318 1.989a612.048 612.048 0 0 0-6.24 3.795l-2.825 1.69-2.466 1.503c-2.967 1.175-4.345.908-7.358-.066-2.298-1.085-2.298-1.085-4.676-2.45l-2.72-1.548-2.917-1.69c-1.522-.87-1.522-.87-3.074-1.76-9.18-5.267-18.319-10.608-27.453-15.954-9.6-5.615-19.241-11.156-28.878-16.707-5.429-3.128-10.855-6.26-16.282-9.391l-6.5-3.75-16.255-9.378a423565.805 423565.805 0 0 0-21.607-12.466 141639.852 141639.852 0 0 0-12.1-6.984A3386.427 3386.427 0 0 0 42 197v-2l2.006-1.155a8507.678 8507.678 0 0 0 37.431-21.657l3.083-1.794 2.851-1.664 2.498-1.456c1.741-1.041 3.443-2.149 5.131-3.274 4.137.325 7.15 2.01 10.7 4.07l3.373 1.944 3.615 2.111 3.766 2.177c2.586 1.495 5.17 2.993 7.753 4.495 3.52 2.046 7.048 4.08 10.578 6.11a5223.324 5223.324 0 0 1 28.351 16.413c1.974 1.15 3.95 2.3 5.927 3.446a732.253 732.253 0 0 1 15.562 9.293l3.296 1.997c2.09 1.268 4.17 2.552 6.24 3.854l2.847 1.715 2.489 1.54c3.496 1.167 5.175.306 8.503-1.165a116.859 116.859 0 0 0 5.52-3.082l3.1-1.826 3.192-1.905 6.27-3.707 2.788-1.659c2.594-1.51 5.201-2.98 7.826-4.435l2.445-1.356L241 203l-.026-2.614a7556.442 7556.442 0 0 1-.36-63.024 3288.44 3288.44 0 0 0-.173-30.478c-.097-8.858-.14-17.713-.121-26.57.008-4.69-.01-9.376-.091-14.064-.076-4.419-.08-8.832-.032-13.25.005-1.617-.015-3.234-.062-4.85-.143-5.1-.007-9.36 1.865-14.15 3.643-3.795 8.338-5.981 13.08-8.107 3.01-1.4 5.802-3.104 8.65-4.807a27487.978 27487.978 0 0 0 12.938-7.438l3.158-1.81c2.19-1.268 4.37-2.555 6.54-3.857l3.247-1.942 2.92-1.767C295 3 295 3 298 3z" fill="rgba(255, 255, 255, 1)" stroke="none"/>
  <path d="M207 304c2.839 1.344 2.839 1.344 5.797 3.07l3.364 1.944 3.589 2.111 3.757 2.18a2548.43 2548.43 0 0 1 7.724 4.496 2417.04 2417.04 0 0 0 13.707 7.927c3.194 1.838 6.384 3.682 9.574 5.526a3935.3 3935.3 0 0 0 11.738 6.758l5.279 3.03a3998.86 3998.86 0 0 0 6.583 3.773l3.04 1.748 2.625 1.503L287 350l2.669 1.197c4.48 2.277 7.713 3.977 9.376 8.892.418 3.95.49 7.828.442 11.791.021 1.514.047 3.027.078 4.54.067 4.099.064 8.194.044 12.292-.01 3.427.013 6.854.036 10.28.053 8.09.05 16.176.009 24.265-.04 8.33.014 16.657.116 24.987.084 7.165.11 14.328.089 21.494-.012 4.274-.003 8.545.063 12.819.361 25.88.361 25.88-3.374 31.71-3.404 3.307-7.103 4.894-11.629 6.13-3.197 1.004-5.81 2.754-8.65 4.517a27487.978 27487.978 0 0 0-12.938 7.438l-3.157 1.81a500.498 500.498 0 0 0-6.54 3.857l-3.247 1.942-2.92 1.767C245 543 245 543 242 543l.057-2.363c.45-19.032.754-38.06.899-57.097.073-9.207.195-18.408.433-27.613.207-8.029.321-16.053.326-24.085.006-4.25.057-8.488.22-12.736 1.207-17.564 1.207-17.564-5.459-32.958-6.205-4.893-12.901-7.979-20.277-10.81-3.994-1.67-7.443-3.868-10.996-6.323-2.838-1.307-4.263-.929-7.203-.015-2.606 1.246-2.606 1.246-5.262 2.852l-3.1 1.806c-1.097.65-2.195 1.298-3.326 1.967-1.161.68-2.323 1.359-3.486 2.037-2.414 1.41-4.827 2.822-7.238 4.237-5.511 3.232-11.051 6.414-16.588 9.601l-6.5 3.75-42.253 24.377-6.466 3.73a49753.616 49753.616 0 0 1-26.804 15.457l-3.032 1.749-2.962 1.685a155.752 155.752 0 0 0-6.17 3.83c-7.906 5.046-7.906 5.046-12.45 4.426l-3.05-1.941-1.749-1.045a126.602 126.602 0 0 1-3.684-2.306c-1.872-1.207-3.773-2.33-5.704-3.439a543.334 543.334 0 0 1-8.29-4.863c-5.955-3.558-11.953-7.044-17.948-10.535A198794.967 198794.967 0 0 1 3 420c1.467-3.81 3.272-5.049 6.82-6.96l3.024-1.657 3.281-1.758c2.297-1.257 4.592-2.516 6.887-3.777l1.775-.971c5.778-3.168 11.47-6.476 17.15-9.814a26328.912 26328.912 0 0 1 8.993-5.27 3160.122 3160.122 0 0 1 15.945-9.23 918990486.187 918990486.187 0 0 0 9.843-5.672c5.429-3.128 10.855-6.26 16.282-9.391l6.5-3.75 3.25-1.875 39.002-22.501 6.478-3.738c5.528-3.19 11.056-6.377 16.586-9.562l3.396-1.957c2.208-1.271 4.417-2.54 6.627-3.808 4.827-2.775 9.629-5.573 14.36-8.508l2.36-1.448a230.57 230.57 0 0 0 4.193-2.65c4.28-2.63 6.435-2.91 11.248-1.703z" fill="rgba(255, 255, 255, 1)" stroke="none"/>
  <path d="M471 148c.302 8.206.533 16.41.674 24.62.067 3.812.159 7.622.307 11.433.142 3.683.219 7.363.252 11.048.024 1.401.071 2.802.141 4.2.219 4.516.152 8.423-1.374 12.699-3.954 3.68-8.098 5.719-13 8a423.814 423.814 0 0 0-6.48 3.754c-2.235 1.271-4.47 2.54-6.708 3.809-2.468 1.403-4.935 2.809-7.402 4.214l-1.878 1.07c-14.815 8.435-29.56 16.992-44.282 25.59-2.886 1.685-5.773 3.368-8.66 5.052l-4.954 2.893a1834.279 1834.279 0 0 1-6.011 3.493l-3.21 1.867C366 273 366 273 364 273c-3.377 25.195-3.377 25.195 3.18 48.362 5.848 5.165 12.882 7.697 20.167 10.246 5.957 2.27 11.22 5.592 16.653 8.892 2.164 1.255 4.33 2.505 6.5 3.75l13 7.5 3.25 1.875 6.496 3.748a25830.6 25830.6 0 0 0 16.324 9.412 6403.128 6403.128 0 0 1 34.376 19.937c6.364 3.717 12.74 7.41 19.127 11.09 3.287 1.893 6.572 3.79 9.857 5.688 3.81 2.2 7.627 4.388 11.453 6.563 1.56.895 3.12 1.79 4.68 2.687l2.128 1.194c4.696 2.716 4.696 2.716 5.809 6.056l-4.773 2.754-3.154 1.82-6.952 4.009a6106.921 6106.921 0 0 0-16.704 9.657 7828.183 7828.183 0 0 1-5.398 3.13c-2.277 1.321-4.553 2.643-6.827 3.968l-3.126 1.81-2.751 1.6C485 450 485 450 482 451c-2.498-1.117-2.498-1.117-5.504-2.875l-3.393-1.963-3.666-2.162a2850.29 2850.29 0 0 0-3.793-2.205 2454.371 2454.371 0 0 1-7.818-4.56c-4.609-2.697-9.239-5.356-13.869-8.016a5073.517 5073.517 0 0 1-30.923-17.952c-10.56-6.166-21.155-12.272-31.752-18.376-6.506-3.748-13.008-7.502-19.512-11.255a21982.43 21982.43 0 0 0-16.586-9.562l-3.424-1.972c-2.114-1.219-4.229-2.436-6.344-3.653a271.125 271.125 0 0 1-5.838-3.46c-2.548-1.496-5.092-2.613-7.848-3.672-5.571-2.345-11.287-4.843-13.725-10.712-1.643-7.34-1.336-14.85-1.193-22.328-.006-2.43-.018-4.86-.034-7.29a746.01 746.01 0 0 1 .116-15.244c.108-6.502.073-12.993-.007-19.495-.046-5.016-.02-10.028.028-15.043.015-2.396.008-4.792-.02-7.188-.157-18.16-.157-18.16 3.575-22.873 3.503-3.006 7.353-4.812 11.654-6.403 2.891-1.142 5.469-2.756 8.114-4.374 2.024-1.165 4.049-2.33 6.074-3.492l6.801-3.914 3.46-1.99c5.479-3.151 10.953-6.311 16.427-9.471l6.5-3.75 3.25-1.875 39.003-22.501 6.473-3.736c5.551-3.204 11.104-6.404 16.66-9.599 2.268-1.304 4.535-2.61 6.801-3.914l3.284-1.889c6.668-3.846 13.303-7.74 19.844-11.8C468.79 148 468.79 148 471 148z" fill="rgba(255, 255, 255, 1)" stroke="none"/>
</svg>
</g></svg></g></g>
<!-- /image 73237 -->

<!-- image 56970 -->
<g id="transformed-56970" data-image="56970" transform="translate(171.71027835617326, 167.71027835617326) rotate(6, 43.289721643826724, 43.289721643826724)"><g><svg version="1.1" width="86.57944328765345px" height="86.57944328765345px" viewBox="0 0 86.57944328765345 86.57944328765345"><g id="original-56970"><svg xmlns="http://www.w3.org/2000/svg" viewBox="0 0 500 500" xmlns:xlink="http://www.w3.org/1999/xlink" version="1.1" preserveAspectRatio="xMidYMid meet">
  <path d="M298 3c.388 29.385.689 58.769.868 88.156l.066 10.416.013 2.094c.074 11.181.208 22.361.365 33.541.159 11.479.252 22.957.288 34.436.022 6.447.074 12.89.197 19.334.116 6.07.151 12.136.126 18.207.004 2.224.038 4.45.103 6.673.457 16.364.457 16.364-3.683 20.998-4.052 3.223-8.482 5.34-13.261 7.268-3.02 1.272-5.716 2.907-8.516 4.607-2 1.154-4.002 2.306-6.003 3.458l-3.318 1.911L255 260a23138.48 23138.48 0 0 0-9.876 5.69c-2.155 1.242-4.31 2.481-6.466 3.719a878.278 878.278 0 0 0-16.451 9.68l-3.318 1.989a612.048 612.048 0 0 0-6.24 3.795l-2.825 1.69-2.466 1.503c-2.967 1.175-4.345.908-7.358-.066-2.298-1.085-2.298-1.085-4.676-2.45l-2.72-1.548-2.917-1.69c-1.522-.87-1.522-.87-3.074-1.76-9.18-5.267-18.319-10.608-27.453-15.954-9.6-5.615-19.241-11.156-28.878-16.707-5.429-3.128-10.855-6.26-16.282-9.391l-6.5-3.75-16.255-9.378a423565.805 423565.805 0 0 0-21.607-12.466 141639.852 141639.852 0 0 0-12.1-6.984A3386.427 3386.427 0 0 0 42 197v-2l2.006-1.155a8507.678 8507.678 0 0 0 37.431-21.657l3.083-1.794 2.851-1.664 2.498-1.456c1.741-1.041 3.443-2.149 5.131-3.274 4.137.325 7.15 2.01 10.7 4.07l3.373 1.944 3.615 2.111 3.766 2.177c2.586 1.495 5.17 2.993 7.753 4.495 3.52 2.046 7.048 4.08 10.578 6.11a5223.324 5223.324 0 0 1 28.351 16.413c1.974 1.15 3.95 2.3 5.927 3.446a732.253 732.253 0 0 1 15.562 9.293l3.296 1.997c2.09 1.268 4.17 2.552 6.24 3.854l2.847 1.715 2.489 1.54c3.496 1.167 5.175.306 8.503-1.165a116.859 116.859 0 0 0 5.52-3.082l3.1-1.826 3.192-1.905 6.27-3.707 2.788-1.659c2.594-1.51 5.201-2.98 7.826-4.435l2.445-1.356L241 203l-.026-2.614a7556.442 7556.442 0 0 1-.36-63.024 3288.44 3288.44 0 0 0-.173-30.478c-.097-8.858-.14-17.713-.121-26.57.008-4.69-.01-9.376-.091-14.064-.076-4.419-.08-8.832-.032-13.25.005-1.617-.015-3.234-.062-4.85-.143-5.1-.007-9.36 1.865-14.15 3.643-3.795 8.338-5.981 13.08-8.107 3.01-1.4 5.802-3.104 8.65-4.807a27487.978 27487.978 0 0 0 12.938-7.438l3.158-1.81c2.19-1.268 4.37-2.555 6.54-3.857l3.247-1.942 2.92-1.767C295 3 295 3 298 3z" fill="rgba(140, 140, 140, 1)" stroke="none"/>
  <path d="M207 304c2.839 1.344 2.839 1.344 5.797 3.07l3.364 1.944 3.589 2.111 3.757 2.18a2548.43 2548.43 0 0 1 7.724 4.496 2417.04 2417.04 0 0 0 13.707 7.927c3.194 1.838 6.384 3.682 9.574 5.526a3935.3 3935.3 0 0 0 11.738 6.758l5.279 3.03a3998.86 3998.86 0 0 0 6.583 3.773l3.04 1.748 2.625 1.503L287 350l2.669 1.197c4.48 2.277 7.713 3.977 9.376 8.892.418 3.95.49 7.828.442 11.791.021 1.514.047 3.027.078 4.54.067 4.099.064 8.194.044 12.292-.01 3.427.013 6.854.036 10.28.053 8.09.05 16.176.009 24.265-.04 8.33.014 16.657.116 24.987.084 7.165.11 14.328.089 21.494-.012 4.274-.003 8.545.063 12.819.361 25.88.361 25.88-3.374 31.71-3.404 3.307-7.103 4.894-11.629 6.13-3.197 1.004-5.81 2.754-8.65 4.517a27487.978 27487.978 0 0 0-12.938 7.438l-3.157 1.81a500.498 500.498 0 0 0-6.54 3.857l-3.247 1.942-2.92 1.767C245 543 245 543 242 543l.057-2.363c.45-19.032.754-38.06.899-57.097.073-9.207.195-18.408.433-27.613.207-8.029.321-16.053.326-24.085.006-4.25.057-8.488.22-12.736 1.207-17.564 1.207-17.564-5.459-32.958-6.205-4.893-12.901-7.979-20.277-10.81-3.994-1.67-7.443-3.868-10.996-6.323-2.838-1.307-4.263-.929-7.203-.015-2.606 1.246-2.606 1.246-5.262 2.852l-3.1 1.806c-1.097.65-2.195 1.298-3.326 1.967-1.161.68-2.323 1.359-3.486 2.037-2.414 1.41-4.827 2.822-7.238 4.237-5.511 3.232-11.051 6.414-16.588 9.601l-6.5 3.75-42.253 24.377-6.466 3.73a49753.616 49753.616 0 0 1-26.804 15.457l-3.032 1.749-2.962 1.685a155.752 155.752 0 0 0-6.17 3.83c-7.906 5.046-7.906 5.046-12.45 4.426l-3.05-1.941-1.749-1.045a126.602 126.602 0 0 1-3.684-2.306c-1.872-1.207-3.773-2.33-5.704-3.439a543.334 543.334 0 0 1-8.29-4.863c-5.955-3.558-11.953-7.044-17.948-10.535A198794.967 198794.967 0 0 1 3 420c1.467-3.81 3.272-5.049 6.82-6.96l3.024-1.657 3.281-1.758c2.297-1.257 4.592-2.516 6.887-3.777l1.775-.971c5.778-3.168 11.47-6.476 17.15-9.814a26328.912 26328.912 0 0 1 8.993-5.27 3160.122 3160.122 0 0 1 15.945-9.23 918990486.187 918990486.187 0 0 0 9.843-5.672c5.429-3.128 10.855-6.26 16.282-9.391l6.5-3.75 3.25-1.875 39.002-22.501 6.478-3.738c5.528-3.19 11.056-6.377 16.586-9.562l3.396-1.957c2.208-1.271 4.417-2.54 6.627-3.808 4.827-2.775 9.629-5.573 14.36-8.508l2.36-1.448a230.57 230.57 0 0 0 4.193-2.65c4.28-2.63 6.435-2.91 11.248-1.703z" fill="rgba(140, 140, 140, 1)" stroke="none"/>
  <path d="M471 148c.302 8.206.533 16.41.674 24.62.067 3.812.159 7.622.307 11.433.142 3.683.219 7.363.252 11.048.024 1.401.071 2.802.141 4.2.219 4.516.152 8.423-1.374 12.699-3.954 3.68-8.098 5.719-13 8a423.814 423.814 0 0 0-6.48 3.754c-2.235 1.271-4.47 2.54-6.708 3.809-2.468 1.403-4.935 2.809-7.402 4.214l-1.878 1.07c-14.815 8.435-29.56 16.992-44.282 25.59-2.886 1.685-5.773 3.368-8.66 5.052l-4.954 2.893a1834.279 1834.279 0 0 1-6.011 3.493l-3.21 1.867C366 273 366 273 364 273c-3.377 25.195-3.377 25.195 3.18 48.362 5.848 5.165 12.882 7.697 20.167 10.246 5.957 2.27 11.22 5.592 16.653 8.892 2.164 1.255 4.33 2.505 6.5 3.75l13 7.5 3.25 1.875 6.496 3.748a25830.6 25830.6 0 0 0 16.324 9.412 6403.128 6403.128 0 0 1 34.376 19.937c6.364 3.717 12.74 7.41 19.127 11.09 3.287 1.893 6.572 3.79 9.857 5.688 3.81 2.2 7.627 4.388 11.453 6.563 1.56.895 3.12 1.79 4.68 2.687l2.128 1.194c4.696 2.716 4.696 2.716 5.809 6.056l-4.773 2.754-3.154 1.82-6.952 4.009a6106.921 6106.921 0 0 0-16.704 9.657 7828.183 7828.183 0 0 1-5.398 3.13c-2.277 1.321-4.553 2.643-6.827 3.968l-3.126 1.81-2.751 1.6C485 450 485 450 482 451c-2.498-1.117-2.498-1.117-5.504-2.875l-3.393-1.963-3.666-2.162a2850.29 2850.29 0 0 0-3.793-2.205 2454.371 2454.371 0 0 1-7.818-4.56c-4.609-2.697-9.239-5.356-13.869-8.016a5073.517 5073.517 0 0 1-30.923-17.952c-10.56-6.166-21.155-12.272-31.752-18.376-6.506-3.748-13.008-7.502-19.512-11.255a21982.43 21982.43 0 0 0-16.586-9.562l-3.424-1.972c-2.114-1.219-4.229-2.436-6.344-3.653a271.125 271.125 0 0 1-5.838-3.46c-2.548-1.496-5.092-2.613-7.848-3.672-5.571-2.345-11.287-4.843-13.725-10.712-1.643-7.34-1.336-14.85-1.193-22.328-.006-2.43-.018-4.86-.034-7.29a746.01 746.01 0 0 1 .116-15.244c.108-6.502.073-12.993-.007-19.495-.046-5.016-.02-10.028.028-15.043.015-2.396.008-4.792-.02-7.188-.157-18.16-.157-18.16 3.575-22.873 3.503-3.006 7.353-4.812 11.654-6.403 2.891-1.142 5.469-2.756 8.114-4.374 2.024-1.165 4.049-2.33 6.074-3.492l6.801-3.914 3.46-1.99c5.479-3.151 10.953-6.311 16.427-9.471l6.5-3.75 3.25-1.875 39.003-22.501 6.473-3.736c5.551-3.204 11.104-6.404 16.66-9.599 2.268-1.304 4.535-2.61 6.801-3.914l3.284-1.889c6.668-3.846 13.303-7.74 19.844-11.8C468.79 148 468.79 148 471 148z" fill="rgba(140, 140, 140, 1)" stroke="none"/>
</svg>
</g></svg></g></g>
<!-- /image 56970 -->
</defs><rect x="0" y="0" width="250" height="250" fill="rgba(255, 255, 255, 0)"></rect><use xlink:href="#transformed-73237" transform="translate(-250, -250)"></use><use xlink:href="#transformed-73237" transform="translate(0, -250)"></use><use xlink:href="#transformed-73237" transform="translate(250, -250)"></use><use xlink:href="#transformed-73237" transform="translate(-250, 0)"></use><use xlink:href="#transformed-73237" transform="translate(0, 0)"></use><use xlink:href="#transformed-73237" transform="translate(250, 0)"></use><use xlink:href="#transformed-73237" transform="translate(-250, 250)"></use><use xlink:href="#transformed-73237" transform="translate(0, 250)"></use><use xlink:href="#transformed-73237" transform="translate(250, 250)"></use><use xlink:href="#transformed-56970" transform="translate(-250, -250)"></use><use xlink:href="#transformed-56970" transform="translate(0, -250)"></use><use xlink:href="#transformed-56970" transform="translate(250, -250)"></use><use xlink:href="#transformed-56970" transform="translate(-250, 0)"></use><use xlink:href="#transformed-56970" transform="translate(0, 0)"></use><use xlink:href="#transformed-56970" transform="translate(250, 0)"></use><use xlink:href="#transformed-56970" transform="translate(-250, 250)"></use><use xlink:href="#transformed-56970" transform="translate(0, 250)"></use><use xlink:href="#transformed-56970" transform="translate(250, 250)"></use></svg>