<svg version="1.1"
      xmlns="http://www.w3.org/2000/svg"
      xmlns:xlink="http://www.w3.org/1999/xlink"  id="snapshot-67332" width="250" height="250" viewBox="0 0 250 250"><desc>This image was made on Patterninja.com</desc><defs>
<!-- image 56970 -->
<g id="transformed-56970" data-image="56970" transform="translate(140.71027835617326, 92.71027835617328) rotate(6, 43.289721643826724, 43.289721643826724)"><g><svg version="1.1" width="86.57944328765345px" height="86.57944328765345px" viewBox="0 0 86.57944328765345 86.57944328765345"><g id="original-56970"><svg xmlns="http://www.w3.org/2000/svg" viewBox="0 0 500 500" xmlns:xlink="http://www.w3.org/1999/xlink" version="1.1" preserveAspectRatio="xMidYMid meet">
  <path d="M298 3c.388 29.385.689 58.769.868 88.156l.066 10.416.013 2.094c.074 11.181.208 22.361.365 33.541.159 11.479.252 22.957.288 34.436.022 6.447.074 12.89.197 19.334.116 6.07.151 12.136.126 18.207.004 2.224.038 4.45.103 6.673.457 16.364.457 16.364-3.683 20.998-4.052 3.223-8.482 5.34-13.261 7.268-3.02 1.272-5.716 2.907-8.516 4.607-2 1.154-4.002 2.306-6.003 3.458l-3.318 1.911L255 260a23138.48 23138.48 0 0 0-9.876 5.69c-2.155 1.242-4.31 2.481-6.466 3.719a878.278 878.278 0 0 0-16.451 9.68l-3.318 1.989a612.048 612.048 0 0 0-6.24 3.795l-2.825 1.69-2.466 1.503c-2.967 1.175-4.345.908-7.358-.066-2.298-1.085-2.298-1.085-4.676-2.45l-2.72-1.548-2.917-1.69c-1.522-.87-1.522-.87-3.074-1.76-9.18-5.267-18.319-10.608-27.453-15.954-9.6-5.615-19.241-11.156-28.878-16.707-5.429-3.128-10.855-6.26-16.282-9.391l-6.5-3.75-16.255-9.378a423565.805 423565.805 0 0 0-21.607-12.466 141639.852 141639.852 0 0 0-12.1-6.984A3386.427 3386.427 0 0 0 42 197v-2l2.006-1.155a8507.678 8507.678 0 0 0 37.431-21.657l3.083-1.794 2.851-1.664 2.498-1.456c1.741-1.041 3.443-2.149 5.131-3.274 4.137.325 7.15 2.01 10.7 4.07l3.373 1.944 3.615 2.111 3.766 2.177c2.586 1.495 5.17 2.993 7.753 4.495 3.52 2.046 7.048 4.08 10.578 6.11a5223.324 5223.324 0 0 1 28.351 16.413c1.974 1.15 3.95 2.3 5.927 3.446a732.253 732.253 0 0 1 15.562 9.293l3.296 1.997c2.09 1.268 4.17 2.552 6.24 3.854l2.847 1.715 2.489 1.54c3.496 1.167 5.175.306 8.503-1.165a116.859 116.859 0 0 0 5.52-3.082l3.1-1.826 3.192-1.905 6.27-3.707 2.788-1.659c2.594-1.51 5.201-2.98 7.826-4.435l2.445-1.356L241 203l-.026-2.614a7556.442 7556.442 0 0 1-.36-63.024 3288.44 3288.44 0 0 0-.173-30.478c-.097-8.858-.14-17.713-.121-26.57.008-4.69-.01-9.376-.091-14.064-.076-4.419-.08-8.832-.032-13.25.005-1.617-.015-3.234-.062-4.85-.143-5.1-.007-9.36 1.865-14.15 3.643-3.795 8.338-5.981 13.08-8.107 3.01-1.4 5.802-3.104 8.65-4.807a27487.978 27487.978 0 0 0 12.938-7.438l3.158-1.81c2.19-1.268 4.37-2.555 6.54-3.857l3.247-1.942 2.92-1.767C295 3 295 3 298 3z" fill="rgba(140, 140, 140, 1)" stroke="none"/>
  <path d="M207 304c2.839 1.344 2.839 1.344 5.797 3.07l3.364 1.944 3.589 2.111 3.757 2.18a2548.43 2548.43 0 0 1 7.724 4.496 2417.04 2417.04 0 0 0 13.707 7.927c3.194 1.838 6.384 3.682 9.574 5.526a3935.3 3935.3 0 0 0 11.738 6.758l5.279 3.03a3998.86 3998.86 0 0 0 6.583 3.773l3.04 1.748 2.625 1.503L287 350l2.669 1.197c4.48 2.277 7.713 3.977 9.376 8.892.418 3.95.49 7.828.442 11.791.021 1.514.047 3.027.078 4.54.067 4.099.064 8.194.044 12.292-.01 3.427.013 6.854.036 10.28.053 8.09.05 16.176.009 24.265-.04 8.33.014 16.657.116 24.987.084 7.165.11 14.328.089 21.494-.012 4.274-.003 8.545.063 12.819.361 25.88.361 25.88-3.374 31.71-3.404 3.307-7.103 4.894-11.629 6.13-3.197 1.004-5.81 2.754-8.65 4.517a27487.978 27487.978 0 0 0-12.938 7.438l-3.157 1.81a500.498 500.498 0 0 0-6.54 3.857l-3.247 1.942-2.92 1.767C245 543 245 543 242 543l.057-2.363c.45-19.032.754-38.06.899-57.097.073-9.207.195-18.408.433-27.613.207-8.029.321-16.053.326-24.085.006-4.25.057-8.488.22-12.736 1.207-17.564 1.207-17.564-5.459-32.958-6.205-4.893-12.901-7.979-20.277-10.81-3.994-1.67-7.443-3.868-10.996-6.323-2.838-1.307-4.263-.929-7.203-.015-2.606 1.246-2.606 1.246-5.262 2.852l-3.1 1.806c-1.097.65-2.195 1.298-3.326 1.967-1.161.68-2.323 1.359-3.486 2.037-2.414 1.41-4.827 2.822-7.238 4.237-5.511 3.232-11.051 6.414-16.588 9.601l-6.5 3.75-42.253 24.377-6.466 3.73a49753.616 49753.616 0 0 1-26.804 15.457l-3.032 1.749-2.962 1.685a155.752 155.752 0 0 0-6.17 3.83c-7.906 5.046-7.906 5.046-12.45 4.426l-3.05-1.941-1.749-1.045a126.602 126.602 0 0 1-3.684-2.306c-1.872-1.207-3.773-2.33-5.704-3.439a543.334 543.334 0 0 1-8.29-4.863c-5.955-3.558-11.953-7.044-17.948-10.535A198794.967 198794.967 0 0 1 3 420c1.467-3.81 3.272-5.049 6.82-6.96l3.024-1.657 3.281-1.758c2.297-1.257 4.592-2.516 6.887-3.777l1.775-.971c5.778-3.168 11.47-6.476 17.15-9.814a26328.912 26328.912 0 0 1 8.993-5.27 3160.122 3160.122 0 0 1 15.945-9.23 918990486.187 918990486.187 0 0 0 9.843-5.672c5.429-3.128 10.855-6.26 16.282-9.391l6.5-3.75 3.25-1.875 39.002-22.501 6.478-3.738c5.528-3.19 11.056-6.377 16.586-9.562l3.396-1.957c2.208-1.271 4.417-2.54 6.627-3.808 4.827-2.775 9.629-5.573 14.36-8.508l2.36-1.448a230.57 230.57 0 0 0 4.193-2.65c4.28-2.63 6.435-2.91 11.248-1.703z" fill="rgba(140, 140, 140, 1)" stroke="none"/>
  <path d="M471 148c.302 8.206.533 16.41.674 24.62.067 3.812.159 7.622.307 11.433.142 3.683.219 7.363.252 11.048.024 1.401.071 2.802.141 4.2.219 4.516.152 8.423-1.374 12.699-3.954 3.68-8.098 5.719-13 8a423.814 423.814 0 0 0-6.48 3.754c-2.235 1.271-4.47 2.54-6.708 3.809-2.468 1.403-4.935 2.809-7.402 4.214l-1.878 1.07c-14.815 8.435-29.56 16.992-44.282 25.59-2.886 1.685-5.773 3.368-8.66 5.052l-4.954 2.893a1834.279 1834.279 0 0 1-6.011 3.493l-3.21 1.867C366 273 366 273 364 273c-3.377 25.195-3.377 25.195 3.18 48.362 5.848 5.165 12.882 7.697 20.167 10.246 5.957 2.27 11.22 5.592 16.653 8.892 2.164 1.255 4.33 2.505 6.5 3.75l13 7.5 3.25 1.875 6.496 3.748a25830.6 25830.6 0 0 0 16.324 9.412 6403.128 6403.128 0 0 1 34.376 19.937c6.364 3.717 12.74 7.41 19.127 11.09 3.287 1.893 6.572 3.79 9.857 5.688 3.81 2.2 7.627 4.388 11.453 6.563 1.56.895 3.12 1.79 4.68 2.687l2.128 1.194c4.696 2.716 4.696 2.716 5.809 6.056l-4.773 2.754-3.154 1.82-6.952 4.009a6106.921 6106.921 0 0 0-16.704 9.657 7828.183 7828.183 0 0 1-5.398 3.13c-2.277 1.321-4.553 2.643-6.827 3.968l-3.126 1.81-2.751 1.6C485 450 485 450 482 451c-2.498-1.117-2.498-1.117-5.504-2.875l-3.393-1.963-3.666-2.162a2850.29 2850.29 0 0 0-3.793-2.205 2454.371 2454.371 0 0 1-7.818-4.56c-4.609-2.697-9.239-5.356-13.869-8.016a5073.517 5073.517 0 0 1-30.923-17.952c-10.56-6.166-21.155-12.272-31.752-18.376-6.506-3.748-13.008-7.502-19.512-11.255a21982.43 21982.43 0 0 0-16.586-9.562l-3.424-1.972c-2.114-1.219-4.229-2.436-6.344-3.653a271.125 271.125 0 0 1-5.838-3.46c-2.548-1.496-5.092-2.613-7.848-3.672-5.571-2.345-11.287-4.843-13.725-10.712-1.643-7.34-1.336-14.85-1.193-22.328-.006-2.43-.018-4.86-.034-7.29a746.01 746.01 0 0 1 .116-15.244c.108-6.502.073-12.993-.007-19.495-.046-5.016-.02-10.028.028-15.043.015-2.396.008-4.792-.02-7.188-.157-18.16-.157-18.16 3.575-22.873 3.503-3.006 7.353-4.812 11.654-6.403 2.891-1.142 5.469-2.756 8.114-4.374 2.024-1.165 4.049-2.33 6.074-3.492l6.801-3.914 3.46-1.99c5.479-3.151 10.953-6.311 16.427-9.471l6.5-3.75 3.25-1.875 39.003-22.501 6.473-3.736c5.551-3.204 11.104-6.404 16.66-9.599 2.268-1.304 4.535-2.61 6.801-3.914l3.284-1.889c6.668-3.846 13.303-7.74 19.844-11.8C468.79 148 468.79 148 471 148z" fill="rgba(140, 140, 140, 1)" stroke="none"/>
</svg>
</g></svg></g></g>
<!-- /image 56970 -->

<!-- image 48616 -->
<g id="transformed-48616" data-image="48616" transform="translate(43.49409476277033, -62.50590523722971) rotate(352, 63.50590523722967, 63.50590523722971)"><g><svg version="1.1" width="127.01181047445934px" height="127.01181047445942px" viewBox="0 0 127.01181047445934 127.01181047445942"><g id="original-48616"><svg xmlns="http://www.w3.org/2000/svg" viewBox="0 0 500 500" xmlns:xlink="http://www.w3.org/1999/xlink" version="1.1" preserveAspectRatio="xMidYMid meet">
  <path d="M471 148c.56 8.1.984 16.193 1.243 24.308.125 3.771.293 7.529.568 11.292 1.715 24.16 1.715 24.16-4.035 31.073-5.702 4.617-12.096 7.49-18.886 10.16-3.624 1.463-6.753 3.275-10.077 5.323L434 233.5a5012.841 5012.841 0 0 0-27.92 16.206 4814.835 4814.835 0 0 1-26.617 15.41l-3.131 1.802-2.759 1.587a191.546 191.546 0 0 0-5.281 3.188C366 273 366 273 364 273v46l6 2a93.4 93.4 0 0 1 4.922 2.73l2.816 1.66 3.012 1.798 6.492 3.828 3.382 1.998c5.397 3.175 10.824 6.3 16.251 9.423a266432.326 266432.326 0 0 1 9.843 5.672c6.51 3.751 13.019 7.508 19.527 11.264 5.44 3.139 10.882 6.277 16.325 9.412a6306.742 6306.742 0 0 1 34.372 19.935c7.523 4.394 15.069 8.747 22.62 13.093C518.769 407.11 527.928 412.476 537 418c-1.216 3.648-2.003 3.853-5.285 5.645l-2.764 1.531-3.013 1.637a4750.261 4750.261 0 0 0-6.278 3.48l-3.304 1.83c-5.535 3.096-11.008 6.297-16.481 9.502l-3.067 1.792c-5.271 3.073-5.271 3.073-10.468 6.268C484 451 484 451 481.637 450.945c-3.543-1.27-6.633-3.11-9.825-5.07-1.525-.917-3.05-1.832-4.578-2.746l-2.529-1.52c-5.017-2.985-10.082-5.886-15.142-8.796l-6.739-3.883L436 425c-13.676-7.876-27.34-15.771-40.966-23.733-11.65-6.803-23.343-13.533-35.034-20.267-13.2-7.603-26.396-15.214-39.563-22.875l-3.139-1.823-2.864-1.67-2.53-1.471C310 352 310 352 309 351a63.008 63.008 0 0 1-.18-4.256l-.044-2.783-.032-3.077-.045-3.222c-.126-9.82-.194-19.64-.247-29.46-.036-6.603-.09-13.205-.186-19.807a1620.97 1620.97 0 0 1-.159-19.125 565.327 565.327 0 0 0-.09-7.295c-.06-3.405-.064-6.806-.055-10.212l-.093-3.047c.1-6.704.1-6.704 3.108-9.654 2.283-1.542 4.559-2.835 7.023-4.062l2.752-1.652 2.314-1.286 2.681-1.499 2.816-1.563a1457.18 1457.18 0 0 0 24.25-13.875c11.606-6.794 23.25-13.52 34.905-20.234 5.429-3.128 10.855-6.26 16.282-9.391l6.5-3.75 3.25-1.875 9.75-5.625 3.256-1.879 6.441-3.713a3558.189 3558.189 0 0 0 15.294-8.855c2.418-1.41 4.839-2.816 7.26-4.222 1.719-1 3.435-2.006 5.151-3.01l3.13-1.817 2.767-1.615C469 148 469 148 471 148z" fill="rgba(0, 108, 255, 1)" stroke="none"/>
  <path d="M207.84 304.81l1.742.983 2.035 1.137 2.195 1.258 2.364 1.333c8.539 4.839 17.004 9.807 25.472 14.768 6.474 3.79 12.975 7.533 19.477 11.274a2824.462 2824.462 0 0 1 25.437 14.812l2.85 1.678 2.592 1.533 2.276 1.345C296 356 296 356 297 357c.15 1.98.229 3.964.282 5.948l.109 3.92c.035 1.448.07 2.896.103 4.344l.118 4.543c.347 13.872.55 27.746.714 41.621.112 9.327.27 18.649.54 27.972.235 8.136.385 16.268.433 24.406.028 4.306.097 8.603.27 12.906 1 26.096 1 26.096-4.914 33.13-5.7 4.65-11.953 7.541-18.808 10.098-3.866 1.51-7.182 3.5-10.702 5.69-2.11 1.225-4.222 2.449-6.333 3.672l-3.302 1.926-3.178 1.84-2.759 1.602C247 542 247 542 242 544V389l-5-2a225.175 225.175 0 0 1-5.676-3.082l-3.26-1.826-3.377-1.904-3.341-1.87c-4.727-2.655-9.384-5.311-13.889-8.33-3.07-2.216-3.07-2.216-5.344-1.788-2.61.988-4.942 2.237-7.375 3.609l-3.113 1.747-3.313 1.882-3.427 1.933a1143.783 1143.783 0 0 0-20.3 11.74c-6.312 3.742-12.664 7.413-19.023 11.077l-3.35 1.93c-3.404 1.962-6.808 3.922-10.212 5.882-17.59 10.128-17.59 10.128-35.14 20.322-1.973 1.15-3.946 2.299-5.92 3.446a1042.198 1042.198 0 0 0-15.6 9.255l-3.31 1.985c-2.1 1.26-4.193 2.53-6.279 3.815l-2.856 1.704-2.505 1.524c-2.955 1.174-4.391.904-7.39-.051a135.662 135.662 0 0 1-7.188-4.125 463136804.466 463136804.466 0 0 1-7.028-4.221c-6.52-3.873-13.118-7.616-19.697-11.387C13.32 426.95 7.614 423.573 2 420c1.216-3.648 2.003-3.853 5.285-5.645l2.76-1.528 3.017-1.64c2.121-1.174 4.24-2.35 6.36-3.527l3.314-1.835c5.066-2.832 10.072-5.763 15.076-8.7 11.607-6.795 23.252-13.52 34.906-20.234 5.429-3.128 10.855-6.26 16.282-9.391a432704.692 432704.692 0 0 1 9.75-5.625l35.75-20.625a923104313.568 923104313.568 0 0 1 9.739-5.618 34342.72 34342.72 0 0 0 19.77-11.413c2.181-1.259 4.363-2.515 6.546-3.77a1105.053 1105.053 0 0 0 15.57-9.094l2.913-1.718a466.92 466.92 0 0 0 5.38-3.222l2.414-1.415 2.085-1.25c3.293-1.186 5.8-.315 8.922 1.06z" fill="rgba(0, 108, 255, 1)" stroke="none"/>
  <path d="M297 2c.297 29.546.527 59.092.664 88.64l.05 10.469.01 2.105c.057 11.244.16 22.486.279 33.73.122 11.54.193 23.078.22 34.619.017 6.48.057 12.96.151 19.44.089 6.101.116 12.2.096 18.3.004 2.239.03 4.477.08 6.715.348 16.467.348 16.467-2.8 20.637-3.474 3.103-7.426 4.669-11.75 6.345a203.222 203.222 0 0 0-6.043 3.535 3846.464 3846.464 0 0 1-6.144 3.528l-5.11 2.937-5.244 3.012c-4.417 2.539-8.83 5.084-13.243 7.632a6785.54 6785.54 0 0 1-6.417 3.699 2133.79 2133.79 0 0 0-15.212 8.829c-2.389 1.4-4.78 2.797-7.173 4.193-1.687.987-3.37 1.982-5.053 2.977l-3.1 1.806-2.72 1.6c-2.671 1.316-4.563 2.085-7.541 2.252-2.725-1.117-2.725-1.117-5.7-2.875l-3.373-1.963-3.614-2.162c-1.257-.737-2.514-1.473-3.771-2.207-2.59-1.514-5.175-3.035-7.757-4.562-5.609-3.313-11.262-6.548-16.91-9.793-2.149-1.24-4.297-2.482-6.445-3.723-5.39-3.115-10.783-6.227-16.176-9.338l-9.746-5.623a22001.83 22001.83 0 0 0-13.078-7.54 5590.3 5590.3 0 0 1-34.347-19.923 1541.842 1541.842 0 0 0-16.224-9.361l-5.365-3.062c-1.704-.97-3.411-1.933-5.119-2.895l-3.14-1.793-2.775-1.571c-2.504-1.638-4.429-3.422-6.46-5.609 10.413-6.09 20.825-12.178 31.277-18.2a8387.025 8387.025 0 0 1 10.43-6l3.156-1.816 2.79-1.602A113.455 113.455 0 0 0 94 164c4.265.312 7.284 1.447 10.922 3.633.93.55 1.858 1.102 2.816 1.67.994.6 1.988 1.202 3.012 1.822l6.492 3.855 3.382 2.018c5.389 3.196 10.82 6.317 16.251 9.44a53944.505 53944.505 0 0 1 9.843 5.67c4.348 2.506 8.695 5.013 13.04 7.525a1069.43 1069.43 0 0 0 6.465 3.693c5.079 2.89 10.083 5.834 14.96 9.05 11.5 8.33 11.5 8.33 24.715 11.495 3.03-1.464 5.442-3.128 8.019-5.28 4.6-3.514 9.815-6.163 14.833-9.029a3657.67 3657.67 0 0 0 9.042-5.388C240 203 240 203 242 203l-.067-2.616c-.531-21.05-.928-42.099-1.176-63.154-.124-10.183-.292-20.362-.568-30.542a1267.22 1267.22 0 0 1-.447-26.635c-.031-4.7-.104-9.392-.28-14.09-1.025-28.524-1.025-28.524 4.88-35.881 5.664-4.744 11.883-7.572 18.805-10.02 3.917-1.458 7.23-3.443 10.779-5.64 3.246-1.868 6.493-3.733 9.74-5.598l3.197-1.84 2.79-1.602C295.397 2 295.397 2 297 2z" fill="rgba(0, 108, 255, 1)" stroke="none"/>
</svg>
</g></svg></g></g>
<!-- /image 48616 -->
</defs><rect x="0" y="0" width="250" height="250" fill="rgba(255, 255, 255, 0)"></rect><use xlink:href="#transformed-56970" transform="translate(-250, -250)"></use><use xlink:href="#transformed-56970" transform="translate(0, -250)"></use><use xlink:href="#transformed-56970" transform="translate(250, -250)"></use><use xlink:href="#transformed-56970" transform="translate(-250, 0)"></use><use xlink:href="#transformed-56970" transform="translate(0, 0)"></use><use xlink:href="#transformed-56970" transform="translate(250, 0)"></use><use xlink:href="#transformed-56970" transform="translate(-250, 250)"></use><use xlink:href="#transformed-56970" transform="translate(0, 250)"></use><use xlink:href="#transformed-56970" transform="translate(250, 250)"></use><use xlink:href="#transformed-48616" transform="translate(-250, -250)"></use><use xlink:href="#transformed-48616" transform="translate(0, -250)"></use><use xlink:href="#transformed-48616" transform="translate(250, -250)"></use><use xlink:href="#transformed-48616" transform="translate(-250, 0)"></use><use xlink:href="#transformed-48616" transform="translate(0, 0)"></use><use xlink:href="#transformed-48616" transform="translate(250, 0)"></use><use xlink:href="#transformed-48616" transform="translate(-250, 250)"></use><use xlink:href="#transformed-48616" transform="translate(0, 250)"></use><use xlink:href="#transformed-48616" transform="translate(250, 250)"></use></svg>